<svg width="140" height="45" viewBox="0 0 173 53" fill="none" xmlns="http://www.w3.org/2000/svg">
<path d="M134.386 39.7557C134.647 39.7557 134.89 39.4944 135.114 38.9718C135.375 38.4492 135.506 37.5906 135.506 36.3961V4.47952C135.506 3.28498 135.375 2.44507 135.114 1.95979C134.89 1.43718 134.647 1.15721 134.386 1.11988C136.028 1.11988 137.447 1.00789 138.641 0.783915C139.873 0.522611 140.732 0.261306 141.217 0V36.3961C141.217 37.5906 141.329 38.4492 141.553 38.9718C141.814 39.4944 142.076 39.7557 142.337 39.7557H134.386Z" fill="white"/>
<path d="M121.562 40.2581C117.68 40.2581 114.619 39.6609 112.379 38.4663C110.177 37.2718 108.628 35.648 107.732 33.5949C106.836 31.5417 106.388 29.2273 106.388 26.6516C106.388 22.0974 107.62 18.6818 110.084 16.4047C112.585 14.1276 116.224 12.9891 121.003 12.9891C123.914 12.9891 126.359 13.1757 128.338 13.549C130.316 13.9223 131.679 14.2769 132.425 14.6129V15.7328L133.545 20.6043C132.799 19.8203 131.38 19.0178 129.29 18.1965C127.199 17.3379 124.567 16.9087 121.394 16.9087C119.789 16.9087 118.259 17.1886 116.803 17.7486C115.384 18.2712 114.227 19.2417 113.331 20.6602C112.473 22.0788 112.043 24.0945 112.043 26.7076C112.043 29.246 112.51 31.2244 113.443 32.643C114.377 34.0241 115.664 34.976 117.307 35.4986C118.949 36.0213 120.816 36.2826 122.906 36.2826C125.557 36.2826 127.74 35.8719 129.458 35.0507C131.212 34.2295 132.388 33.4269 132.985 32.643V33.7628L133.545 37.5704C132.836 38.1677 131.436 38.765 129.346 39.3622C127.293 39.9595 124.698 40.2581 121.562 40.2581Z" fill="white"/>
<path d="M160.255 40.3141C157.306 40.3141 154.879 39.9782 152.976 39.3062C151.072 38.597 149.579 37.6264 148.496 36.3946C147.413 35.1627 146.648 33.7255 146.2 32.083C145.79 30.4405 145.584 28.6487 145.584 26.7076C145.584 22.4894 146.779 19.1484 149.168 16.6847C151.594 14.2209 155.178 12.9891 159.919 12.9891C162.681 12.9891 164.902 13.3624 166.582 14.109C168.299 14.8555 169.587 15.8448 170.446 17.0766C171.342 18.3085 171.939 19.6524 172.238 21.1082C172.573 22.5267 172.741 23.9266 172.741 25.3077V27.9395C172.741 27.8275 172.219 27.7155 171.174 27.6035C170.166 27.4542 168.449 27.3795 166.022 27.3795H151.296C151.296 30.1419 152.117 32.3257 153.759 33.9308C155.402 35.536 157.847 36.3386 161.095 36.3386C163.894 36.3386 166.19 36.0026 167.982 35.3307C169.811 34.6214 171.024 33.9308 171.622 33.2589V34.3788L172.182 38.0744C171.36 38.5597 169.904 39.0636 167.814 39.5862C165.761 40.0715 163.241 40.3141 160.255 40.3141ZM153.536 23.6839H167.142C167.142 22.7134 166.937 21.7055 166.526 20.6602C166.115 19.615 165.388 18.7378 164.342 18.0285C163.297 17.2819 161.823 16.9086 159.919 16.9086C157.492 16.9086 155.551 17.4873 154.095 18.6445C152.677 19.8017 151.968 21.1082 151.968 22.564C151.968 22.9373 152.08 23.2173 152.304 23.4039C152.528 23.5906 152.938 23.6839 153.536 23.6839Z" fill="white"/>
<path d="M81.3039 52.8568C79.0641 52.8568 77.291 52.6328 75.9845 52.1849C74.678 51.7369 5.97269 53.2674 5.5994 52.8568L74.5846 45.0176L0 52.8568C0.261305 53.6407 75.2752 44.943 75.8725 45.8015C22.3976 52.7846 77.1604 47.444 78.0563 48.0413C78.9522 48.6386 79.9601 48.9372 81.0799 48.9372C82.9837 48.9372 84.4769 48.3773 85.5594 47.2574C86.6793 46.1375 87.7246 44.6443 88.6951 42.7779C89.4417 41.2847 89.9083 40.2581 90.095 39.6982C89.871 39.3996 89.5164 38.709 89.0311 37.6264C88.5458 36.5439 87.9672 35.2373 87.2953 33.7068C86.6233 32.139 85.9141 30.4779 85.1675 28.7234C84.4582 26.9689 83.749 25.2704 83.0397 23.6279C82.3305 21.9854 81.6959 20.5296 81.1359 19.2604C80.576 17.9912 80.1467 17.0766 79.8481 16.5167C79.2135 15.3222 78.6349 14.4449 78.1123 13.885C77.5896 13.325 77.2163 13.0264 76.9924 12.9891H86.1194C85.8208 12.9891 85.6154 13.269 85.5035 13.829C85.4288 14.3516 85.6341 15.2475 86.1194 16.5167C86.418 17.226 86.8287 18.2525 87.3513 19.5964C87.8739 20.9029 88.4525 22.3961 89.0871 24.0759C89.7217 25.7184 90.3749 27.3982 91.0469 29.1153C91.7188 30.7952 92.3347 32.363 92.8947 33.8188H92.9507C93.5479 32.2883 94.2012 30.6458 94.9104 28.8914C95.6197 27.1369 96.3103 25.4197 96.9822 23.7399C97.6915 22.0601 98.3074 20.5669 98.83 19.2604C99.39 17.9539 99.8006 17.002 100.062 16.4047C100.585 15.2102 100.79 14.3516 100.678 13.829C100.566 13.3064 100.361 13.0264 100.062 12.9891H108.853C108.629 13.0264 108.274 13.3064 107.789 13.829C107.341 14.3143 106.819 15.1542 106.221 16.3487C105.885 16.9833 105.363 18.0659 104.653 19.5964C103.981 21.1269 103.198 22.8813 102.302 24.8598C101.406 26.8382 100.491 28.8914 99.5579 31.0191C98.6247 33.1096 97.7475 35.088 96.9262 36.9545C96.105 38.7836 95.4144 40.2955 94.8544 41.49C93.1373 45.2603 91.2335 48.0973 89.1431 50.0011C87.0526 51.9049 84.4396 52.8568 81.3039 52.8568Z" fill="white"/>
<path d="M37.0681 40.3169C34.1191 40.3169 31.6927 39.9809 29.7889 39.309C27.8851 38.5998 26.392 37.6292 25.3094 36.3973C24.2269 35.1655 23.4616 33.7283 23.0137 32.0858C22.603 30.4433 22.3977 28.6515 22.3977 26.7104C22.3977 22.4922 23.5923 19.1512 25.9813 16.6874C28.4077 14.2237 31.9914 12.9918 36.7322 12.9918C39.4945 12.9918 41.7156 13.3651 43.3955 14.1117C45.1126 14.8583 46.4005 15.8475 47.259 17.0794C48.1549 18.3113 48.7522 19.6551 49.0509 21.111C49.3868 22.5295 49.5548 23.9293 49.5548 25.3105V27.9422C49.5548 27.8302 49.0322 27.7183 47.987 27.6063C46.9791 27.457 45.2619 27.3823 42.8355 27.3823H28.1091C28.1091 30.1447 28.9304 32.3284 30.5728 33.9336C32.2153 35.5387 34.6604 36.3413 37.9081 36.3413C40.7077 36.3413 43.0035 36.0054 44.7953 35.3334C46.6244 34.6242 47.8377 33.9336 48.4349 33.2617V34.3815L55.9941 35.3334C55.1729 35.8187 46.7178 39.0664 44.6273 39.589C42.5742 40.0743 40.0545 40.3169 37.0681 40.3169ZM30.3489 23.6867H43.9554C43.9554 22.7161 43.7501 21.7082 43.3395 20.663C42.9288 19.6178 42.2009 18.7406 41.1557 18.0313C40.1105 17.2847 38.636 16.9114 36.7322 16.9114C34.3058 16.9114 32.3646 17.49 30.9088 18.6472C29.4903 19.8044 28.781 21.111 28.781 22.5668C28.781 22.9401 28.893 23.2201 29.117 23.4067C29.341 23.5934 29.7516 23.6867 30.3489 23.6867Z" fill="white"/>
<path d="M64.5602 40.3154C58.1395 40.3154 53.3241 38.9342 50.1137 36.1719C46.9408 33.3722 45.3543 28.9673 45.3543 22.9573C45.3543 19.4857 46.0075 16.462 47.314 13.8863C48.6206 11.2732 50.6924 9.23879 53.5294 7.78294C56.3664 6.3271 60.0433 5.59918 64.5602 5.59918C68.1065 5.59918 71.0555 5.78582 73.4072 6.15912C75.759 6.53241 77.3455 6.9057 78.1667 7.279V8.39888L79.2866 13.4383C78.2414 12.6917 76.4309 11.9452 73.8552 11.1986C71.2795 10.452 68.2185 10.0787 64.6722 10.0787C61.3499 10.0787 58.7368 10.6386 56.833 11.7585C54.9292 12.8411 53.5854 14.3529 52.8015 16.294C52.0175 18.2351 51.6256 20.4562 51.6256 22.9573C51.6256 25.4584 52.0175 27.6795 52.8015 29.6206C53.6227 31.5244 55.0785 33.0362 57.169 34.1561C59.2968 35.2386 62.3391 35.7799 66.296 35.7799C69.5063 35.7799 72.1754 35.4066 74.3031 34.66C76.4682 33.8761 77.9427 33.1295 78.7267 32.4203V34.1001L79.2866 37.5157C78.652 38.113 77.1028 38.7289 74.6391 39.3635C72.2127 39.9981 68.8531 40.3154 64.5602 40.3154Z" fill="white"/>
</svg>
