<svg width="30" height="25" viewBox="0 0 42 38" fill="none" xmlns="http://www.w3.org/2000/svg">
<path d="M37.8328 8.5H6.5625C5.83734 8.5 5.25 7.91266 5.25 7.1875C5.25 6.46234 5.83734 5.875 6.5625 5.875H38.0625C38.7877 5.875 39.375 5.28766 39.375 4.5625C39.375 2.38785 37.6121 0.625 35.4375 0.625H5.25C2.3502 0.625 0 2.9752 0 5.875V32.125C0 35.0248 2.3502 37.375 5.25 37.375H37.8328C40.1313 37.375 42 35.6089 42 33.4375V12.4375C42 10.2661 40.1313 8.5 37.8328 8.5ZM34.125 25.5625C32.6755 25.5625 31.5 24.387 31.5 22.9375C31.5 21.488 32.6755 20.3125 34.125 20.3125C35.5745 20.3125 36.75 21.488 36.75 22.9375C36.75 24.387 35.5745 25.5625 34.125 25.5625Z" fill="#0A7A22"/>
</svg>
